<svg width="424" height="496" viewBox="0 0 424 496" fill="none" xmlns="http://www.w3.org/2000/svg">
<g clip-path="url(#clip0_269_2667)">
<path d="M213.284 163.089C211.256 140.013 231.875 136.054 245.294 127.426C255.671 120.76 272.267 114.094 280.717 126.241C290.08 139.708 296.097 157.506 297.584 173.984C301.573 217.801 286.058 256.949 261.552 292.612C236.134 329.561 206.727 362.145 166.2 383.8C156.33 389.078 149.232 400.989 142.877 411.106C133.041 426.772 125.503 443.926 115.802 459.694C111.78 466.224 104.716 470.894 99.037 476.409C96.9413 475.529 94.8795 474.649 92.7838 473.77C93.595 467.002 92.75 459.423 95.5555 453.637C105.932 432.558 117.053 411.816 128.917 391.515C133.345 383.935 139.531 376.627 146.595 371.484C167.416 356.325 189.691 343.163 210.073 327.497C218.253 321.204 222.816 310.342 229.374 301.816C251.784 272.818 271.659 242.332 275.377 204.876C276.999 188.364 275.073 171.378 273.484 154.765C272.2 141.062 263.885 139.742 253.305 146.272C248.539 149.216 244.381 153.412 239.311 155.577C233.227 158.182 226.501 159.265 222.039 160.483C218.524 162.277 216.394 163.393 214.231 164.476C213.96 163.968 213.656 163.461 213.318 163.021L213.284 163.089Z" fill="#45DD9F"/>
<path d="M118.912 71.7659C127.396 61.6151 134.122 48.5545 144.804 41.9903C163.766 30.3508 184.892 21.9595 205.781 13.9404C210.411 12.1809 217.814 17.6623 223.932 19.794C219.504 24.4295 215.921 31.5351 210.547 33.2945C170.087 46.592 135.001 68.2808 107.115 100.256C59.9631 154.359 36.708 198.312 22.4777 271.025C20.3483 281.954 22.7143 293.729 20.6525 304.658C19.5708 310.376 13.3515 315.114 9.43053 320.29C6.32084 315.012 0.845076 309.869 0.473264 304.388C-2.33222 262.194 8.1799 221.896 27.6493 185.556C46.8483 149.724 71.5568 116.734 95.1499 83.4054C99.4764 77.315 109.955 75.5894 117.594 71.8336L118.202 71.3937L118.946 71.7659H118.912Z" fill="#45DD9F"/>
<path d="M282.712 55.085C325.842 58.9423 347.508 75.5557 354.438 115.956C364.375 173.781 358.663 230.253 335.441 284.492C333.886 288.113 332.67 292.511 329.898 294.778C325.842 298.094 320.467 299.786 315.668 302.154C314.451 296.47 310.462 289.466 312.457 285.338C332.399 243.957 339.464 200.241 337.976 154.867C337.571 142.551 336.523 130.133 334.36 118.02C329.29 89.6652 307.082 72.7811 277.709 79.3791C254.082 84.6575 231.74 95.9249 208.992 104.925C204.395 106.752 200.879 111.659 196.249 112.91C191.753 114.129 186.48 112.504 181.545 112.098C182.559 107.125 181.849 100.019 184.925 97.5828C195.269 89.293 206.152 80.6649 218.287 75.8263C239.176 67.4689 261.18 61.8521 282.712 55.1188V55.085Z" fill="#45DD9F"/>
<path d="M68.0414 355.276C68.0414 323.437 64.729 291.157 68.8527 259.825C74.6665 215.805 99.0708 179.634 129.728 148.201C133.142 144.716 140.714 145.325 146.325 144.039C145.48 149.284 146.189 155.543 143.519 159.637C128.072 183.39 108.197 203.827 98.1582 231.64C85.787 265.95 81.4267 300.361 87.6122 335.922C92.6148 364.683 86.8348 390.533 70.4413 414.185C56.5491 434.215 30.8941 434.114 19.4356 412.73C12.7092 400.177 9.80229 385.39 6.7264 371.247C5.84757 367.254 10.5459 362.077 12.6754 357.442C16.9005 360.893 22.8833 363.499 25.0128 367.965C29.3393 376.999 30.9617 387.285 34.8488 396.59C40.4936 410.124 49.1805 411.241 56.0421 398.214C62.9037 385.221 66.5204 370.503 71.5568 356.562C70.3737 356.156 69.1907 355.716 67.9738 355.31L68.0414 355.276Z" fill="#45DD9F"/>
<path d="M213.284 163.089C213.622 163.563 213.927 164.036 214.197 164.544C209.634 173.815 206.693 184.473 200.271 192.154C178.131 218.512 155.518 244.295 148.86 279.62C147.778 285.338 147.913 291.259 147.508 297.079C149.333 298.331 151.158 299.617 152.95 300.869C160.927 292.68 169.58 285.033 176.678 276.135C188.914 260.773 199.798 244.295 212.203 229.069C214.738 225.956 221.464 226.26 226.23 224.975C227.041 229.949 230.354 236.885 228.258 239.592C208.045 265.409 187.832 291.361 165.422 315.215C159.845 321.136 145.108 323.2 136.657 320.493C123.137 316.162 124.861 301.681 125.976 289.838C129.796 249.201 150.888 217.023 176.881 187.383C183.54 179.804 189.996 171.852 197.804 165.694C201.386 162.852 208.045 163.867 213.284 163.157V163.089Z" fill="#45DD9F"/>
<path d="M191.787 496C187.224 491.974 180.092 487.812 180.633 485.68C181.883 480.808 186.108 474.717 190.604 472.958C209.228 465.615 228.765 460.54 247.322 453.096C308.806 428.43 346.663 381.127 371.372 321.509C375.732 311.019 380.363 300.564 385.805 290.616C387.022 288.383 394.526 286.658 395.066 287.436C397.77 291.462 401.86 297.451 400.542 300.869C391.855 323.369 384.25 346.75 371.913 367.221C345.92 410.294 311.916 446.363 265.27 467.713C241.982 478.372 217.442 486.222 191.787 496Z" fill="#45DD9F"/>
<path d="M423.527 158.183C423.527 167.183 424.879 176.488 423.054 185.116C421.769 191.139 416.158 196.248 412.474 201.764C409.161 196.282 403.381 190.97 402.908 185.252C400.846 160.078 403.449 134.16 398.548 109.662C386.616 49.7391 368.431 27.3059 313.2 22.0952C307.623 21.5538 301.573 21.6891 296.638 19.4898C292.244 17.5612 289.1 12.858 285.382 9.37288C289.438 6.0908 294.103 -0.574866 297.449 0.0341797C318.71 3.89147 341.019 6.32765 360.522 14.8543C411.494 37.0845 416.361 86.0788 423.392 132.84C424.642 141.096 423.561 149.724 423.561 158.183C423.561 158.183 423.527 158.183 423.493 158.183H423.527Z" fill="#45DD9F"/>
<path d="M305.392 348.814C291.939 362.822 285.281 384.037 261.079 389.722C252.595 391.718 246.646 403.628 238.838 410.125C234.647 413.61 229.036 416.926 223.83 417.332C218.524 417.738 212.913 414.524 207.437 412.899C210.107 408.535 211.763 402.681 215.617 400.076C227.278 392.26 240.629 386.846 251.682 378.353C262.972 369.725 273.991 359.743 282.07 348.171C290.655 335.889 296.536 334.468 305.358 348.747L305.392 348.814Z" fill="#45DD9F"/>
<path d="M118.912 71.7657L118.168 71.3936L117.56 71.8334L118.912 71.7657Z" fill="#45DD9F"/>
</g>
<defs>
<clipPath id="clip0_269_2667">
<rect width="424" height="496" fill="white"/>
</clipPath>
</defs>
</svg>
